<?xml version="1.0" encoding="UTF-8" standalone="no"?>
<!-- Created with Inkscape (http://www.inkscape.org/) -->

<svg
   width="512"
   height="512"
   viewBox="0 0 135.46666 135.46667"
   version="1.1"
   id="svg5"
   inkscape:version="1.1 (c68e22c387, 2021-05-23)"
   sodipodi:docname="cross.svg"
   inkscape:export-filename="C:\Users\Anonymous\Desktop\form-validation\cross.png"
   inkscape:export-xdpi="96"
   inkscape:export-ydpi="96"
   xmlns:inkscape="http://www.inkscape.org/namespaces/inkscape"
   xmlns:sodipodi="http://sodipodi.sourceforge.net/DTD/sodipodi-0.dtd"
   xmlns="http://www.w3.org/2000/svg"
   xmlns:svg="http://www.w3.org/2000/svg">
  <sodipodi:namedview
     id="namedview7"
     pagecolor="#505050"
     bordercolor="#eeeeee"
     borderopacity="1"
     inkscape:pageshadow="0"
     inkscape:pageopacity="0"
     inkscape:pagecheckerboard="0"
     inkscape:document-units="px"
     showgrid="false"
     units="px"
     width="512px"
     inkscape:zoom="0.65134574"
     inkscape:cx="174.25461"
     inkscape:cy="310.12715"
     inkscape:window-width="1024"
     inkscape:window-height="745"
     inkscape:window-x="-8"
     inkscape:window-y="-8"
     inkscape:window-maximized="1"
     inkscape:current-layer="layer1" />
  <defs
     id="defs2" />
  <g
     inkscape:label="Layer 1"
     inkscape:groupmode="layer"
     id="layer1">
    <path
       style="fill:#b85c38;stroke-width:0.264583;fill-opacity:1;opacity:1"
       d="M 63.367708,129.64446 C 47.993065,128.50344 33.935674,121.94265 23.242974,110.91767 13.866742,101.25007 8.0907165,89.354336 6.1929558,75.803124 5.6676854,72.052362 5.6010498,64.03726 6.0653745,60.457291 7.8658479,46.575539 13.717163,34.350315 23.270757,24.509885 33.050031,14.436996 45.51852,8.1625752 59.663541,6.1962263 63.425284,5.6732935 71.531778,5.6001389 74.877082,6.0589364 c 3.380693,0.4636511 7.32948,1.2670292 9.925619,2.019361 23.457429,6.7976966 40.720809,26.5646686 44.344159,50.7750846 0.71758,4.794668 0.76726,12.014514 0.11635,16.907679 -1.48462,11.160545 -5.93092,21.692964 -12.87627,30.501409 -3.42467,4.34334 -9.17111,9.70951 -13.64061,12.73794 -11.444725,7.75469 -25.848953,11.64816 -39.378622,10.64405 z m 9.392708,-11.38109 c 6.40775,-0.66485 11.683547,-2.21359 17.594791,-5.16507 10.155543,-5.07064 17.672453,-12.58755 22.743093,-22.743093 2.19905,-4.404278 3.51383,-8.123666 4.34907,-12.303125 2.25356,-11.276493 0.93321,-22.05376 -3.94767,-32.222798 C 101.31571,20.444617 71.055732,9.7909318 45.772917,21.984588 35.178231,27.094303 27.096174,35.183483 21.967048,45.811433 c -9.159865,18.979961 -5.589405,41.529886 9.01927,56.962947 10.605209,11.20367 26.450763,17.07888 41.774098,15.48899 z M 45.775634,93.049855 c -2.005091,-0.638534 -3.716133,-3.182842 -3.701073,-5.50347 0.01315,-2.024774 0.78631,-2.981568 9.329187,-11.544824 l 8.248551,-8.268228 -8.248551,-8.268229 c -8.542877,-8.563255 -9.316045,-9.520049 -9.329187,-11.544823 -0.0209,-3.218514 2.627206,-5.866609 5.84572,-5.84572 2.024774,0.01315 2.981568,0.78631 11.544823,9.329187 l 8.268229,8.248551 8.268228,-8.233764 c 4.547526,-4.528571 8.625417,-8.41126 9.061979,-8.628197 3.146541,-1.563584 6.99362,0.09347 7.963627,3.430172 0.430851,1.482069 0.316114,2.822609 -0.357989,4.182615 -0.216387,0.436563 -4.096377,4.515318 -8.622199,9.063905 l -8.228768,8.270155 8.24663,8.266303 c 8.540872,8.561247 9.314122,9.518178 9.327264,11.542897 0.02088,3.218513 -2.627207,5.866608 -5.84572,5.84572 -2.024774,-0.01315 -2.981568,-0.78631 -11.544824,-9.329187 l -8.268228,-8.248552 -8.268229,8.248552 c -8.715086,8.694345 -9.53489,9.345702 -11.707812,9.302175 -0.582083,-0.01167 -1.47383,-0.153516 -1.981658,-0.315238 z"
       id="path1484" />
  </g>
</svg>
